<svg xmlns="http://www.w3.org/2000/svg" viewBox="0 0 512 512" id="checklist"><linearGradient id="a" x1="128.194" x2="71.924" y1="153.967" y2="51.356" gradientUnits="userSpaceOnUse"><stop offset="0" stop-color="#36abae"></stop><stop offset="1" stop-color="#55ffc4"></stop></linearGradient><path fill="url(#a)" d="M133.111 80.95c-1.072-1.452-2.427-3.069-4.137-4.833l-.001-.001a70.963 70.963 0 0 0-5.081-4.722v.049a4.945 4.945 0 0 1-1.854 3.864 7.36 7.36 0 0 1 2.884 5.849 7.373 7.373 0 1 1-10.043-6.875 4.956 4.956 0 0 1 2.893-7.654c-4.925-3.551-11.099-7.415-18.839-11.519a6.175 6.175 0 1 1-10.472-6.497C61.097 28.58 62.613 1.553 62.613 1.553 45.092 44.6 48.259 80.382 55.95 105.57a12.562 12.562 0 0 1 9.255-4.052c6.956 0 12.597 5.639 12.597 12.598 0 6.956-5.64 12.597-12.597 12.597-.291 0-.58-.011-.866-.03a123.941 123.941 0 0 0 6.435 11.425c3.313 5.199 11.638 17.437 11.638 17.437l39.174-9.588c.389-.581 1.187-4.401 1.647-24.973.353-15.804 13.294-22.84 20.305-28.415 0 0-6.465-6.256-10.427-11.619z"></path><linearGradient id="b" x1="100.838" x2="41.258" y1="114.609" y2="25.238" gradientUnits="userSpaceOnUse"><stop offset="0" stop-color="#3695ae"></stop><stop offset="1" stop-color="#55ffc4"></stop></linearGradient><path fill="url(#b)" d="M55.098 82.31a.78.78 0 0 1 .919-.613l22.555 4.502c-5.904-9.075-10.395-18.665-13.385-28.594-3.272-10.868-4.102-20.141-4.222-26.006-.131-6.377.509-10.134.536-10.29a.782.782 0 0 1 1.539.267c-.006.037-.646 3.812-.512 10.069.123 5.771.969 14.897 4.2 25.595 4.165 13.79 12.956 32.181 31.704 50.389V76.903a.781.781 0 0 1 1.562 0v32.226c6.562 6.239 14.34 12.441 23.49 18.413.361.236.453.72.217 1.081a.788.788 0 0 1-1.089.227c-8.744-5.707-16.642-11.879-23.635-18.462a.78.78 0 0 1-.548-.518c-5.843-5.556-11.046-11.403-15.573-17.509a122.382 122.382 0 0 1-3.065-4.326l-24.08-4.807a.78.78 0 0 1-.613-.918z"></path><linearGradient id="c" x1="405.07" x2="82.799" y1="406.127" y2="83.856" gradientUnits="userSpaceOnUse"><stop offset="0" stop-color="#dfdbdb"></stop><stop offset=".31" stop-color="#f9f8f8"></stop><stop offset=".405" stop-color="#f2f0f0"></stop><stop offset=".645" stop-color="#e3dfdf"></stop><stop offset="1" stop-color="#fff"></stop></linearGradient><path fill="url(#c)" d="M458.35 257.602c0 81.746-48.605 152.14-118.491 183.859-25.398 11.527-53.606 17.946-83.314 17.946-21.999 0-43.178-3.52-63.001-10.029-29.931-9.826-56.773-26.465-78.692-48.082a202.046 202.046 0 0 1-12.306-13.268C72.724 352.853 54.74 307.327 54.74 257.602c0-37.235 10.084-72.115 27.672-102.057a202.782 202.782 0 0 1 59.856-64.295c32.488-22.363 71.853-35.453 114.276-35.453 111.454 0 201.806 90.351 201.806 201.805z"></path><linearGradient id="d" x1="-22.348" x2="223.422" y1="411.551" y2="232.81" gradientUnits="userSpaceOnUse"><stop offset="0" stop-color="#36abae"></stop><stop offset="1" stop-color="#55ffc4"></stop></linearGradient><circle cx="89.457" cy="330.238" r="6.72" fill="url(#d)"></circle><linearGradient id="e" x1="-5.624" x2="240.145" y1="172.653" y2="-6.089" gradientUnits="userSpaceOnUse"><stop offset="0" stop-color="#36abae"></stop><stop offset="1" stop-color="#55ffc4"></stop></linearGradient><circle cx="139.137" cy="67.372" r="3.649" fill="url(#e)"></circle><linearGradient id="f" x1="350.734" x2="507.409" y1="372.703" y2="72.041" gradientUnits="userSpaceOnUse"><stop offset="0" stop-color="#a789ff"></stop><stop offset="1" stop-color="#daecd7"></stop></linearGradient><path fill="url(#f)" d="M501.401 214.744a19.557 19.557 0 0 0-14.412-6.31c-10.833 0-19.615 8.781-19.615 19.615 0 10.833 8.782 19.615 19.615 19.615.452 0 .903-.015 1.348-.046-9.706 19.515-18.849 30.158-18.849 30.158s-27.817 31.527-71.986 45.564a.014.014 0 0 1-.013.004v.001c-.594.189-1.191.374-1.79.557l-14.619-11.837 4.518-34.735c-.607-.906 2.443-9.248 1.728-41.283-.551-24.608-1.506-37.748-12.425-46.427 0 0 .281-7.545 12.067-19.982l.012-.013a99.651 99.651 0 0 1 4.797-4.716c1.191-1.1 2.465-2.227 3.829-3.384l-.001.075a7.7 7.7 0 0 0 2.888 6.018 11.478 11.478 0 0 0-2.145 2.153 11.394 11.394 0 0 0-2.347 6.954c0 3.102 1.232 5.917 3.233 7.983a11.437 11.437 0 0 0 8.247 3.496c1.232 0 2.418-.193 3.529-.553 4.614-1.487 7.951-5.818 7.951-10.926 0-4.875-3.036-9.038-7.322-10.704a7.715 7.715 0 0 0-4.503-11.918c7.669-5.53 17.283-11.547 29.335-17.937a9.616 9.616 0 0 0 18.112-4.506c0-2.094-.67-4.033-1.807-5.612 42.612-31.191 40.248-73.274 40.248-73.274 27.284 67.03 22.352 122.746 10.377 161.97z"></path><linearGradient id="g" x1="389.592" x2="521.993" y1="275.642" y2="96.9" gradientUnits="userSpaceOnUse"><stop offset="0" stop-color="#9870e6"></stop><stop offset="1" stop-color="#daecd7"></stop></linearGradient><path fill="url(#g)" d="M502.727 178.524a1.217 1.217 0 0 0-1.431-.955l-35.121 7.01c9.193-14.132 16.186-29.064 20.842-44.525 5.096-16.923 6.388-31.362 6.575-40.495.203-9.93-.792-15.779-.835-16.024a1.217 1.217 0 0 0-2.396.416c.01.058 1.006 5.935.797 15.678-.192 8.987-1.508 23.196-6.54 39.855-6.486 21.473-20.174 50.11-49.367 78.463v-47.843a1.216 1.216 0 0 0-2.432 0v50.18c-10.217 9.715-22.33 19.372-36.578 28.672a1.212 1.212 0 0 0-.339 1.683 1.229 1.229 0 0 0 1.694.354c13.616-8.887 25.914-18.497 36.803-28.748.404-.105.728-.411.854-.807 9.099-8.652 17.201-17.756 24.25-27.264a191.81 191.81 0 0 0 4.773-6.736l37.496-7.484a1.215 1.215 0 0 0 .955-1.43z"></path><linearGradient id="h" x1="417.9" x2="397.212" y1="139.712" y2="118.197" gradientUnits="userSpaceOnUse"><stop offset="0" stop-color="#a789ff"></stop><stop offset="1" stop-color="#daecd7"></stop></linearGradient><circle cx="407.851" cy="129.261" r="8.957" fill="url(#h)"></circle><linearGradient id="i" x1="400.721" x2="386.654" y1="78.561" y2="62.01" gradientUnits="userSpaceOnUse"><stop offset="0" stop-color="#a789ff"></stop><stop offset="1" stop-color="#daecd7"></stop></linearGradient><circle cx="395.699" cy="72.651" r="4.551" fill="url(#i)"></circle><linearGradient id="j" x1="516.999" x2="463.211" y1="314.768" y2="285.805" gradientUnits="userSpaceOnUse"><stop offset="0" stop-color="#a789ff"></stop><stop offset="1" stop-color="#daecd7"></stop></linearGradient><circle cx="490.704" cy="300.609" r="15.228" fill="url(#j)"></circle><linearGradient id="k" x1="442.546" x2="416.893" y1="36.781" y2="18.576" gradientUnits="userSpaceOnUse"><stop offset="0" stop-color="#a789ff"></stop><stop offset="1" stop-color="#daecd7"></stop></linearGradient><circle cx="430.529" cy="28.252" r="7.605" fill="url(#k)"></circle><linearGradient id="l" x1="8.727" x2="254.496" y1="145.341" y2="-33.401" gradientUnits="userSpaceOnUse"><stop offset="0" stop-color="#36abae"></stop><stop offset="1" stop-color="#55ffc4"></stop></linearGradient><circle cx="136.007" cy="52.773" r="6.261" fill="url(#l)"></circle><linearGradient id="m" x1="165.368" x2="142.198" y1="28.882" y2="-6.701" gradientUnits="userSpaceOnUse"><stop offset="0" stop-color="#36abae"></stop><stop offset="1" stop-color="#55ffc4"></stop></linearGradient><circle cx="156.027" cy="14.537" r="10.994" fill="url(#m)"></circle><linearGradient id="n" x1=".993" x2="8.984" y1="169.967" y2="169.967" gradientUnits="userSpaceOnUse"><stop offset="0" stop-color="#36abae"></stop><stop offset="1" stop-color="#55ffc4"></stop></linearGradient><circle cx="4.989" cy="169.967" r="3.995" fill="url(#n)"></circle><linearGradient id="o" x1="94.636" x2="102.626" y1="35.857" y2="35.857" gradientUnits="userSpaceOnUse"><stop offset="0" stop-color="#36abae"></stop><stop offset="1" stop-color="#55ffc4"></stop></linearGradient><circle cx="98.631" cy="35.857" r="3.995" fill="url(#o)"></circle><linearGradient id="p" x1="14.398" x2="44.414" y1="130.88" y2="130.88" gradientUnits="userSpaceOnUse"><stop offset="0" stop-color="#36abae"></stop><stop offset="1" stop-color="#55ffc4"></stop></linearGradient><circle cx="29.406" cy="130.88" r="15.008" fill="url(#p)"></circle><linearGradient id="q" x1="47.427" x2="77.444" y1="367.702" y2="367.702" gradientUnits="userSpaceOnUse"><stop offset="0" stop-color="#36abae"></stop><stop offset="1" stop-color="#55ffc4"></stop></linearGradient><circle cx="62.435" cy="367.702" r="15.008" fill="url(#q)"></circle><path fill="#5572FF" d="M339.858 158.654v282.807c-25.398 11.527-53.606 17.946-83.314 17.946-21.999 0-43.178-3.52-63.001-10.029-29.931-9.826-56.773-26.465-78.692-48.082a202.046 202.046 0 0 1-12.306-13.268V158.654a9.233 9.233 0 0 1 9.232-9.232h218.849a9.232 9.232 0 0 1 9.232 9.232z"></path><linearGradient id="r" x1="351.785" x2="107.518" y1="456.434" y2="133.062" gradientUnits="userSpaceOnUse"><stop offset="0" stop-color="#ccc"></stop><stop offset=".01" stop-color="#cfcfcf"></stop><stop offset=".105" stop-color="#e4e4e4"></stop><stop offset=".211" stop-color="#f3f3f3"></stop><stop offset=".334" stop-color="#fcfcfc"></stop><stop offset=".514" stop-color="#fff"></stop><stop offset=".719" stop-color="#fdfdfd"></stop><stop offset=".835" stop-color="#f4f4f4"></stop><stop offset=".929" stop-color="#e7e7e7"></stop><stop offset="1" stop-color="#d6d6d6"></stop></linearGradient><path fill="url(#r)" d="M327.552 165.827V409.29l-40.088 40.088h-93.92c-29.931-9.826-56.773-26.465-78.692-48.082V165.827h212.7z"></path><path fill="#FFD85A" d="M261.188 156.634v23.071h-79.974v-23.071c0-10.616 8.594-19.224 19.205-19.247h41.565c10.611.023 19.204 8.631 19.204 19.247zm-39.986-40.03c-11.478 0-20.783 9.305-20.783 20.783h8.735c0-6.653 5.395-12.048 12.048-12.048s12.048 5.395 12.048 12.048h8.735c0-11.479-9.305-20.783-20.783-20.783z"></path><path fill="#FFF" d="m327.552 409.29-40.336 40.336V409.29z"></path><linearGradient id="s" x1="278.992" x2="318.933" y1="399.446" y2="439.387" gradientUnits="userSpaceOnUse"><stop offset="0" stop-color="#ccc"></stop><stop offset=".274" stop-color="#d0d0d0"></stop><stop offset=".562" stop-color="#ddd"></stop><stop offset=".856" stop-color="#f2f2f2"></stop><stop offset="1" stop-color="#fff"></stop></linearGradient><path fill="url(#s)" d="M325.975 410.867v35.563l-35.562-.001z"></path><linearGradient id="t" x1="261.325" x2="221.055" y1="158.546" y2="158.546" gradientUnits="userSpaceOnUse"><stop offset="0" stop-color="#fff"></stop><stop offset=".037" stop-color="#fffaeb"></stop><stop offset=".146" stop-color="#ffefb4"></stop><stop offset=".258" stop-color="#ffe484"></stop><stop offset=".372" stop-color="#ffdb5b"></stop><stop offset=".488" stop-color="#ffd43a"></stop><stop offset=".607" stop-color="#ffce21"></stop><stop offset=".729" stop-color="#ffca0e"></stop><stop offset=".857" stop-color="#ffc804"></stop><stop offset="1" stop-color="#ffc700"></stop></linearGradient><path fill="url(#t)" d="M261.188 156.634v23.071h-39.986v-42.318h20.783c10.61.023 19.203 8.631 19.203 19.247z" opacity=".4"></path><linearGradient id="u" x1="171.789" x2="207.906" y1="158.546" y2="158.546" gradientUnits="userSpaceOnUse"><stop offset="0"></stop><stop offset=".06" stop-color="#231b00"></stop><stop offset=".159" stop-color="#564300"></stop><stop offset=".262" stop-color="#836600"></stop><stop offset=".368" stop-color="#a98400"></stop><stop offset=".477" stop-color="#c89c00"></stop><stop offset=".591" stop-color="#e1af00"></stop><stop offset=".71" stop-color="#f2bd00"></stop><stop offset=".84" stop-color="#fcc400"></stop><stop offset="1" stop-color="#ffc700"></stop></linearGradient><path fill="url(#u)" d="M221.202 137.387v42.318h-39.987v-23.071c0-10.616 8.594-19.224 19.205-19.247h20.782z" opacity=".4"></path><path fill="#FFD85A" d="M262.472 186.103h-82.268a3.199 3.199 0 1 1 0-6.398h82.268a3.199 3.199 0 1 1 0 6.398z"></path><path fill="#FF858B" d="M156.944 230.542H143.75c-5.808 0-10.516 4.708-10.516 10.516v13.195c0 5.808 4.708 10.516 10.516 10.516h13.195c5.808 0 10.516-4.708 10.516-10.516v-13.195c-.001-5.808-4.709-10.516-10.517-10.516z"></path><path fill="#FFD85A" d="M156.944 294.274H143.75c-5.808 0-10.516 4.708-10.516 10.516v13.195c0 5.808 4.708 10.516 10.516 10.516h13.195c5.808 0 10.516-4.708 10.516-10.516V304.79c-.001-5.808-4.709-10.516-10.517-10.516z"></path><path fill="#FF858B" d="M156.944 358.006H143.75c-5.808 0-10.516 4.708-10.516 10.516v13.195c0 5.808 4.708 10.516 10.516 10.516h13.195c5.808 0 10.516-4.708 10.516-10.516v-13.195c-.001-5.808-4.709-10.516-10.517-10.516z"></path><path fill="#FFD85A" d="M307.635 306.115H191.544a3.383 3.383 0 0 1-3.383-3.383v-4.245a3.383 3.383 0 0 1 3.383-3.383h116.092a3.383 3.383 0 0 1 3.383 3.383v4.245a3.384 3.384 0 0 1-3.384 3.383zm-61.429 21.555h-54.663a3.383 3.383 0 0 1-3.383-3.383v-4.245a3.383 3.383 0 0 1 3.383-3.383h54.663a3.383 3.383 0 0 1 3.383 3.383v4.245a3.383 3.383 0 0 1-3.383 3.383z"></path><path fill="#92AAFF" d="M307.635 241.552H191.544a3.383 3.383 0 0 1-3.383-3.383v-4.245a3.383 3.383 0 0 1 3.383-3.383h116.092a3.383 3.383 0 0 1 3.383 3.383v4.245a3.384 3.384 0 0 1-3.384 3.383zm-61.429 21.556h-54.663a3.383 3.383 0 0 1-3.383-3.383v-4.245a3.383 3.383 0 0 1 3.383-3.383h54.663a3.383 3.383 0 0 1 3.383 3.383v4.245a3.383 3.383 0 0 1-3.383 3.383zm61.429 107.569H191.544a3.383 3.383 0 0 1-3.383-3.383v-4.245a3.383 3.383 0 0 1 3.383-3.383h116.092a3.383 3.383 0 0 1 3.383 3.383v4.245a3.384 3.384 0 0 1-3.384 3.383zm-61.429 21.555h-54.663a3.383 3.383 0 0 1-3.383-3.383v-4.245a3.383 3.383 0 0 1 3.383-3.383h54.663a3.383 3.383 0 0 1 3.383 3.383v4.245a3.382 3.382 0 0 1-3.383 3.383z"></path><path fill="#5572FF" d="m151.541 321.843-12.404-12.404 3.987-3.987 8.417 8.417 21.232-21.232 3.987 3.987z"></path><linearGradient id="v" x1="122.205" x2="80.334" y1="103.865" y2="42.081" gradientTransform="rotate(9.979 -907.08 216.064)" gradientUnits="userSpaceOnUse"><stop offset="0" stop-color="#36abae"></stop><stop offset="1" stop-color="#55ffc4"></stop></linearGradient><path fill="url(#v)" d="M61.096 227.062s-1.814 1.32-4.65 3.943a204.91 204.91 0 0 0-1.091 42.242 201.214 201.214 0 0 0 5.594 33.992c27.822-2.687 38.219-12.693 38.219-12.693s9.558-1.994 21.627-16.833c-5.289-1.927-8.596-7.422-7.586-13.159 1.131-6.432 7.264-10.73 13.696-9.598a11.78 11.78 0 0 1 6.441 3.413c.883-1.67 1.766-3.416 2.648-5.242 17.934-37.134 40.518-24.502 40.978-24.241-.711-.512-55.67-39.888-115.876-1.824zm42.603 51.508a5.146 5.146 0 1 1-10.135-1.784 5.146 5.146 0 0 1 10.135 1.784z"></path><linearGradient id="w" x1="117.055" x2="78.155" y1="263.788" y2="213.875" gradientUnits="userSpaceOnUse"><stop offset="0" stop-color="#9870e6"></stop><stop offset="1" stop-color="#daecd7"></stop></linearGradient><path fill="url(#w)" d="M155.994 225.695c-.13.45-.6.708-1.048.579-.058-.018-3.279-.926-8.787-1.272-5.104-.322-13.27-.215-23.198 2.123a88.976 88.976 0 0 0-4.828 1.282.844.844 0 0 1-.718.215 98.473 98.473 0 0 0-9.666 3.516l30.83 8.272c.451.12.719.585.597 1.036a.845.845 0 0 1-1.036.598l-32.619-8.753a.95.95 0 0 1-.207-.086c-6.2 2.812-12.904 6.573-19.92 11.593l1.531.461c15.479 4.661 16.084 4.844 27.968 10.189a.846.846 0 1 1-.693 1.543L86.437 246.88l-2.495-.75a.847.847 0 0 1-.229-.109c-9.101 6.728-18.692 15.582-28.357 27.227-.064-.813-.123-1.628-.176-2.444a184.844 184.844 0 0 1 9.832-10.782l4.791-27.228a.847.847 0 0 1 1.667.293l-4.358 24.774c7.147-6.924 14.481-12.876 22.026-17.781.111-.071.241-.137.352-.208-.083-.159-.158-.353-.125-.542l2.816-16.005a.846.846 0 1 1 1.667.293l-2.665 15.145c8.484-5.236 17.141-9.205 25.899-11.833l7.206-10.035a.846.846 0 1 1 1.377.983l-5.932 8.317a92.397 92.397 0 0 1 2.953-.744c10.129-2.372 18.467-2.468 23.679-2.132 5.676.366 8.917 1.291 9.052 1.328a.848.848 0 0 1 .577 1.048z"></path><path d="m70.131 306.003-9.181 1.237a201.23 201.23 0 0 1-5.77-36.436 204.865 204.865 0 0 1 1.267-39.798l7.062-5.429c-.001 0-7.92 41.349 6.622 80.426z" opacity=".11"></path><path fill="#6990FF" d="M376.377 470.219c-2.911 0-5.773-1.416-7.078-4.094h-13.9V208.91h42.09v257.215h-13.901c-1.547 2.775-4.402 4.094-7.211 4.094z"></path><path fill="#FF858B" d="M397.489 208.91h-42.09v-21.044a20.985 20.985 0 0 1 6.164-14.882 20.978 20.978 0 0 1 14.88-6.164c11.623 0 21.045 9.422 21.045 21.045l.001 21.045z"></path><linearGradient id="x" x1="-1217.872" x2="-1251.761" y1="5022.418" y2="5021.954" gradientTransform="rotate(90 1840.402 3558)" gradientUnits="userSpaceOnUse"><stop offset="0" stop-color="#ccc"></stop><stop offset=".007" stop-color="#ceccc9"></stop><stop offset=".082" stop-color="#e0c8ae"></stop><stop offset=".165" stop-color="#eec598"></stop><stop offset=".255" stop-color="#f7c389"></stop><stop offset=".36" stop-color="#fdc280"></stop><stop offset=".514" stop-color="#ffc27d"></stop><stop offset=".675" stop-color="#fec37f"></stop><stop offset=".767" stop-color="#fac488"></stop><stop offset=".842" stop-color="#f4c896"></stop><stop offset=".906" stop-color="#ebcca9"></stop><stop offset=".965" stop-color="#dfd2c3"></stop><stop offset="1" stop-color="#d6d6d6"></stop></linearGradient><path fill="url(#x)" d="M383.074 499.642h-13.259L355.4 466.126a9.23 9.23 0 0 0 7.115 3.344c2.6 0 5.149-1.109 6.785-3.344 1.305 2.677 4.167 4.094 7.078 4.094 2.809 0 5.664-1.319 7.211-4.094a8.666 8.666 0 0 0 6.786 3.308c2.345 0 4.865-.968 7.115-3.308l-14.416 33.516z"></path><linearGradient id="y" x1="-1211.215" x2="-1219.053" y1="5026.533" y2="5016.157" gradientTransform="rotate(90 1840.402 3558)" gradientUnits="userSpaceOnUse"><stop offset="0" stop-color="#ccc"></stop><stop offset=".048" stop-color="#a9bad8"></stop><stop offset=".105" stop-color="#88a8e4"></stop><stop offset=".167" stop-color="#6c99ee"></stop><stop offset=".233" stop-color="#568df5"></stop><stop offset=".306" stop-color="#4785fb"></stop><stop offset=".39" stop-color="#3e80fe"></stop><stop offset=".514" stop-color="#3b7fff"></stop><stop offset=".65" stop-color="#3d80fe"></stop><stop offset=".728" stop-color="#4685fc"></stop><stop offset=".79" stop-color="#548df9"></stop><stop offset=".845" stop-color="#6798f3"></stop><stop offset=".895" stop-color="#81a6ed"></stop><stop offset=".941" stop-color="#a0b8e4"></stop><stop offset=".983" stop-color="#c5cdda"></stop><stop offset="1" stop-color="#d6d6d6"></stop></linearGradient><path fill="url(#y)" d="m373.678 508.625-3.863-8.983h13.259l-3.863 8.983c-1.045 2.429-4.489 2.429-5.533 0z"></path><path fill="#FFD85A" d="M390.374 469.433a8.663 8.663 0 0 1-6.786-3.308V208.91h13.901v257.215c-2.25 2.34-4.77 3.308-7.115 3.308zm-27.86.036a9.235 9.235 0 0 1-7.115-3.344V208.91h13.9v257.215c-1.636 2.235-4.185 3.344-6.785 3.344z"></path><defs><filter id="z" width="13.901" height="260.523" x="383.588" y="208.91" filterUnits="userSpaceOnUse"><feFlood flood-color="#fff" flood-opacity="1" result="back"></feFlood><feBlend in="SourceGraphic" in2="back"></feBlend></filter></defs><mask id="B" width="13.901" height="260.523" x="383.588" y="208.91" maskUnits="userSpaceOnUse"><g filter="url(#z)"><linearGradient id="A" x1="397.656" x2="383.431" y1="339.171" y2="339.171" gradientUnits="userSpaceOnUse"><stop offset="0" stop-color="#4f4f4f"></stop><stop offset=".077" stop-color="#444"></stop><stop offset=".317" stop-color="#262626"></stop><stop offset=".553" stop-color="#111"></stop><stop offset=".784" stop-color="#040404"></stop><stop offset="1"></stop></linearGradient><path fill="url(#A)" d="M390.374 469.433a8.663 8.663 0 0 1-6.786-3.308V208.91h13.901v257.215c-2.25 2.34-4.77 3.308-7.115 3.308z" mask="url(#B)"></path></g></mask><linearGradient id="C" x1="397.656" x2="383.431" y1="339.171" y2="339.171" gradientUnits="userSpaceOnUse"><stop offset="0" stop-color="#6d6d6d"></stop><stop offset=".154" stop-color="#95864f"></stop><stop offset=".33" stop-color="#bb9d33"></stop><stop offset=".505" stop-color="#d9af1d"></stop><stop offset=".676" stop-color="#eebc0d"></stop><stop offset=".843" stop-color="#fbc403"></stop><stop offset="1" stop-color="#ffc700"></stop></linearGradient><path fill="url(#C)" d="M390.374 469.433a8.663 8.663 0 0 1-6.786-3.308V208.91h13.901v257.215c-2.25 2.34-4.77 3.308-7.115 3.308z"></path><linearGradient id="D" x1="-1378.408" x2="-1378.408" y1="5042.938" y2="5034.946" gradientTransform="rotate(90 1840.402 3558)" gradientUnits="userSpaceOnUse"><stop offset="0" stop-color="#fff"></stop><stop offset=".037" stop-color="#fffaeb"></stop><stop offset=".146" stop-color="#ffefb4"></stop><stop offset=".258" stop-color="#ffe484"></stop><stop offset=".372" stop-color="#ffdb5b"></stop><stop offset=".488" stop-color="#ffd43a"></stop><stop offset=".607" stop-color="#ffce21"></stop><stop offset=".729" stop-color="#ffca0e"></stop><stop offset=".857" stop-color="#ffc804"></stop><stop offset="1" stop-color="#ffc700"></stop></linearGradient><path fill="url(#D)" d="M362.514 469.469a9.235 9.235 0 0 1-7.115-3.344V208.91h13.9v257.215c-1.636 2.235-4.185 3.344-6.785 3.344z" opacity=".26"></path><path fill="#2EFFBE" d="M355.399 223.395V208.91h42.089v14.485h-28.189z"></path><defs><filter id="E" width="13.901" height="14.485" x="383.588" y="208.91" filterUnits="userSpaceOnUse"><feFlood flood-color="#fff" flood-opacity="1" result="back"></feFlood><feBlend in="SourceGraphic" in2="back"></feBlend></filter></defs><mask id="G" width="13.901" height="14.485" x="383.588" y="208.91" maskUnits="userSpaceOnUse"><g filter="url(#E)"><linearGradient id="F" x1="-1501.399" x2="-1501.497" y1="5000.799" y2="5015.804" gradientTransform="rotate(90 1840.402 3558)" gradientUnits="userSpaceOnUse"><stop offset="0" stop-color="#fff"></stop><stop offset=".06" stop-color="#dcdcdc"></stop><stop offset=".159" stop-color="#a9a9a9"></stop><stop offset=".262" stop-color="#7c7c7c"></stop><stop offset=".368" stop-color="#565656"></stop><stop offset=".477" stop-color="#373737"></stop><stop offset=".591" stop-color="#1e1e1e"></stop><stop offset=".71" stop-color="#0d0d0d"></stop><stop offset=".84" stop-color="#030303"></stop><stop offset="1"></stop></linearGradient><path fill="url(#F)" d="M383.588 208.91h13.901v14.485h-13.901z" mask="url(#G)"></path></g></mask><linearGradient id="H" x1="-1501.399" x2="-1501.497" y1="5000.799" y2="5015.804" gradientTransform="rotate(90 1840.402 3558)" gradientUnits="userSpaceOnUse"><stop offset="0"></stop><stop offset=".06" stop-color="#06231a"></stop><stop offset=".159" stop-color="#0f5640"></stop><stop offset=".262" stop-color="#188362"></stop><stop offset=".368" stop-color="#1fa97e"></stop><stop offset=".477" stop-color="#24c895"></stop><stop offset=".591" stop-color="#29e1a7"></stop><stop offset=".71" stop-color="#2cf2b4"></stop><stop offset=".84" stop-color="#2dfcbc"></stop><stop offset="1" stop-color="#2effbe"></stop></linearGradient><path fill="url(#H)" d="M383.588 208.91h13.901v14.485h-13.901z" opacity=".36"></path><defs><filter id="I" width="13.9" height="14.485" x="355.399" y="208.91" filterUnits="userSpaceOnUse"><feFlood flood-color="#fff" flood-opacity="1" result="back"></feFlood><feBlend in="SourceGraphic" in2="back"></feBlend></filter></defs><mask id="K" width="13.9" height="14.485" x="355.399" y="208.91" maskUnits="userSpaceOnUse"><g filter="url(#I)"><linearGradient id="J" x1="-1501.445" x2="-1501.445" y1="5042.418" y2="5029.743" gradientTransform="rotate(90 1840.402 3558)" gradientUnits="userSpaceOnUse"><stop offset="0" stop-color="#fff"></stop><stop offset=".123" stop-color="#e7e7e7"></stop><stop offset=".384" stop-color="#a7a7a7"></stop><stop offset=".759" stop-color="#444"></stop><stop offset="1"></stop></linearGradient><path fill="url(#J)" d="M355.399 208.91h13.9v14.485h-13.9z" mask="url(#K)"></path></g></mask><linearGradient id="L" x1="-1501.445" x2="-1501.445" y1="5042.418" y2="5029.743" gradientTransform="rotate(90 1840.402 3558)" gradientUnits="userSpaceOnUse"><stop offset="0" stop-color="#fff"></stop><stop offset=".202" stop-color="#e7f8ed"></stop><stop offset=".627" stop-color="#a8e6c1"></stop><stop offset="1" stop-color="#6dd596"></stop></linearGradient><path fill="url(#L)" d="M355.399 208.91h13.9v14.485h-13.9z" opacity=".55"></path><linearGradient id="M" x1="-1529.733" x2="-1529.733" y1="5000.913" y2="5016.866" gradientTransform="rotate(90 1840.402 3558)" gradientUnits="userSpaceOnUse"><stop offset="0"></stop><stop offset=".06" stop-color="#231213"></stop><stop offset=".159" stop-color="#562d2f"></stop><stop offset=".262" stop-color="#834448"></stop><stop offset=".368" stop-color="#a9585c"></stop><stop offset=".477" stop-color="#c8696d"></stop><stop offset=".591" stop-color="#e1757a"></stop><stop offset=".71" stop-color="#f27e84"></stop><stop offset=".84" stop-color="#fc8389"></stop><stop offset="1" stop-color="#ff858b"></stop></linearGradient><path fill="url(#M)" d="M397.489 208.91h-21.045v-42.09c11.623 0 21.045 9.422 21.045 21.045v21.045z" opacity=".36"></path><linearGradient id="N" x1="-1529.754" x2="-1529.754" y1="496.431" y2="512.384" gradientTransform="matrix(0 1 1 0 -141.097 1717.619)" gradientUnits="userSpaceOnUse"><stop offset="0" stop-color="#fff"></stop><stop offset=".14" stop-color="#ffdadc"></stop><stop offset=".287" stop-color="#ffbbbf"></stop><stop offset=".442" stop-color="#ffa3a8"></stop><stop offset=".605" stop-color="#ff9298"></stop><stop offset=".782" stop-color="#ff888e"></stop><stop offset="1" stop-color="#ff858b"></stop></linearGradient><path fill="url(#N)" d="M355.334 208.91h21.045v-42.09c-11.623 0-21.045 9.422-21.045 21.046v21.044z" opacity=".36"></path><path fill="#D35368" d="m386.418 208.91.241-10.698.241 10.698zM381.35 201.51l.241-10.698.241 10.698zM391.485 198.693l.241-10.698.242 10.698zM370.009 190.088l.163-7.208.162 7.208zM379.82 204.43l.163-7.208.162 7.208zM367.353 201.816l.162-7.208.163 7.208zM363.112 186.598l.162-7.208.163 7.208zM387.267 183.861l.162-7.208.163 7.208zM369.043 206.175l.242-10.698.241 10.698zM360.839 190.088c.022-.897.036-1.789.064-2.689a46.396 46.396 0 0 1 .982-8.008 47.748 47.748 0 0 0-.361 2.661c-.096.89-.164 1.781-.207 2.674a45.14 45.14 0 0 0-.051 2.678c.012.891.038 1.79.056 2.685h-.483z" opacity=".36"></path><linearGradient id="O" x1="-1220.95" x2="-1230.292" y1="5023.516" y2="5023.388" gradientTransform="rotate(90 1840.402 3558)" gradientUnits="userSpaceOnUse"><stop offset="0" stop-color="#ccc"></stop><stop offset=".007" stop-color="#ceccc9"></stop><stop offset=".082" stop-color="#e0c8ae"></stop><stop offset=".165" stop-color="#eec598"></stop><stop offset=".255" stop-color="#f7c389"></stop><stop offset=".36" stop-color="#fdc280"></stop><stop offset=".514" stop-color="#ffc27d"></stop><stop offset=".675" stop-color="#fec37f"></stop><stop offset=".767" stop-color="#fac488"></stop><stop offset=".842" stop-color="#f4c896"></stop><stop offset=".906" stop-color="#ebcca9"></stop><stop offset=".965" stop-color="#dfd2c3"></stop><stop offset="1" stop-color="#d6d6d6"></stop></linearGradient><path fill="url(#O)" d="m374.625 487.3.65 9.353"></path><path fill="#D35368" d="M394.501 470.219a231.999 231.999 0 0 1-2.706 6.545c-.927 2.171-1.886 4.327-2.843 6.485a889.578 889.578 0 0 1-2.903 6.458 541.448 541.448 0 0 1-2.975 6.426c.897-2.184 1.813-4.36 2.738-6.531a889.89 889.89 0 0 1 2.81-6.499c.947-2.162 1.893-4.324 2.871-6.473a236.326 236.326 0 0 1 3.008-6.411zm-2.688 1.248a399.895 399.895 0 0 1-2.263 6.083 525.484 525.484 0 0 1-1.162 3.029 429.06 429.06 0 0 1-1.177 3.024 475.396 475.396 0 0 1-2.402 6.028 267.407 267.407 0 0 1-2.519 5.983 267.34 267.34 0 0 1 2.223-6.099 481.535 481.535 0 0 1 2.339-6.053c.395-1.007.792-2.013 1.194-3.017a524.78 524.78 0 0 1 1.208-3.011 406.515 406.515 0 0 1 2.479-5.998l.08.031zm-3.808 3.622a197.565 197.565 0 0 1-1.726 5.546c-.198.614-.401 1.227-.606 1.839a205.229 205.229 0 0 1-1.252 3.664 109.83 109.83 0 0 1-1.348 3.631c.346-1.245.729-2.478 1.118-3.708.395-1.229.796-2.455 1.214-3.676.207-.611.415-1.222.627-1.831a197.536 197.536 0 0 1 1.973-5.465zm-5.716-1.819a162.002 162.002 0 0 1-.591 5.742c-.229 1.91-.474 3.817-.741 5.721-.134.952-.263 1.905-.406 2.856l-.21 1.427-.219 1.426c-.295 1.9-.602 3.799-.951 5.693.171-1.917.383-3.829.608-5.739l.171-1.432.18-1.431c.117-.954.248-1.907.373-2.86.253-1.906.527-3.81.818-5.711.295-1.902.606-3.801.968-5.692zm-5.845 1.299c.089 1.191.136 2.382.168 3.572.02.595.025 1.191.036 1.786l.012 1.786-.011 1.786c-.012.595-.016 1.191-.036 1.786a73.526 73.526 0 0 1-.169 3.572 73.646 73.646 0 0 1-.169-3.572c-.02-.595-.024-1.191-.036-1.786l-.011-1.786.012-1.786c.012-.595.016-1.191.036-1.786.032-1.19.079-2.381.168-3.572zm-13.64-1.299a199.367 199.367 0 0 1 2.135 5.784c.689 1.935 1.352 3.88 2.006 5.827.33.973.644 1.95.967 2.925.314.978.63 1.955.936 2.936.614 1.96 1.208 3.928 1.75 5.912a167.087 167.087 0 0 1-2.147-5.78c-.344-.968-.678-1.939-1.013-2.91-.327-.974-.662-1.944-.982-2.92a351.21 351.21 0 0 1-1.891-5.865 198.374 198.374 0 0 1-1.761-5.909zm6.495 7.665c.293 1.213.568 2.429.823 3.649.131.609.253 1.22.379 1.831l.362 1.834c.471 2.448.921 4.899 1.294 7.366-.58-2.426-1.082-4.868-1.564-7.313l-.353-1.836c-.112-.613-.228-1.225-.335-1.839a124.49 124.49 0 0 1-.606-3.692z" opacity=".14"></path><path d="M142.268 91.25a202.793 202.793 0 0 0-59.856 64.295l-4.116-6.085c24.004-49.61 59.615-62.742 59.615-62.742l4.357 4.532zm254.08 78.522a11.394 11.394 0 0 0-2.342 6.632c-1.555-2.377-3.799-4.763-7.038-6.766l.012-.013c.156-.178 1.886-2.125 4.797-4.716 0 0 2.893.328 6.032 3.279a11.3 11.3 0 0 0-1.461 1.584zm9.132 39.137V320.383l-7.978 2.955-.013.005V187.866s.063-1.245-.256-3.157a11.437 11.437 0 0 0 7.939 3.492c.36 5.607.308 12.503.308 20.708z" opacity=".11"></path></svg>